<?xml version="1.0" encoding="UTF-8"?> <svg xmlns="http://www.w3.org/2000/svg" width="34" height="34" viewBox="0 0 34 34" fill="none"><path d="M21.2537 3.3999V8.4999C21.2537 9.43879 22.0148 10.1999 22.9537 10.1999H28.0537M11.9037 10.1999H15.3037M11.9037 15.2999H22.1037M11.9037 20.3999H22.1037M25.5037 5.9499C24.747 5.27294 23.9619 4.47002 23.4663 3.94855C23.1365 3.60154 22.6808 3.3999 22.202 3.3999H9.35326C7.4755 3.3999 5.95327 4.92212 5.95326 6.79988L5.95313 27.1998C5.95311 29.0776 7.47534 30.5998 9.35311 30.5998L24.6532 30.5999C26.5309 30.5999 28.0531 29.0777 28.0532 27.2L28.0536 9.17683C28.0536 8.74214 27.8878 8.32428 27.5861 8.01134C27.0282 7.43265 26.0966 6.48047 25.5037 5.9499Z" stroke="black" stroke-width="2" stroke-linecap="round" stroke-linejoin="round"></path></svg> 